<svg width="26" height="23" fill="none" xmlns="http://www.w3.org/2000/svg"><path d="M24.916 2.875H5.836L5.46.879A1.082 1.082 0 004.395 0H.542A.54.54 0 000 .54v.358c0 .298.243.54.542.54h3.553L7.251 18.19a2.857 2.857 0 00-.751 1.934A2.882 2.882 0 009.389 23a2.882 2.882 0 002.889-2.875c0-.505-.133-1-.388-1.438h6.553a2.85 2.85 0 00-.387 1.438A2.882 2.882 0 0020.945 23a2.882 2.882 0 002.888-2.875 2.86 2.86 0 00-.875-2.06 1.083 1.083 0 00-1.05-.815H8.543l-.542-2.875H22.96c.514 0 .956-.358 1.06-.858l1.957-9.344a1.08 1.08 0 00-1.06-1.298zm-14.083 17.25c0 .793-.648 1.438-1.444 1.438a1.443 1.443 0 01-1.445-1.438c0-.793.648-1.438 1.445-1.438.796 0 1.444.645 1.444 1.438zm10.111 1.438a1.443 1.443 0 01-1.444-1.438c0-.793.648-1.438 1.444-1.438.797 0 1.445.645 1.445 1.438 0 .793-.648 1.438-1.445 1.438zm1.723-8.625H7.73L6.106 4.312h18.366l-1.805 8.625z" fill="#000"/></svg>